<?xml version="1.0" standalone="no"?>
<!DOCTYPE svg PUBLIC "-//W3C//DTD SVG 20010904//EN"
 "http://www.w3.org/TR/2001/REC-SVG-20010904/DTD/svg10.dtd">
<svg version="1.0" xmlns="http://www.w3.org/2000/svg"
 width="500.000000pt" height="500.000000pt" viewBox="0 0 500.000000 500.000000"
 preserveAspectRatio="xMidYMid meet">
<metadata>
Created by potrace 1.14, written by Peter Selinger 2001-2017
</metadata>
<g transform="translate(0.000000,500.000000) scale(0.100000,-0.100000)"
fill="#000000" stroke="none">
<path d="M2339 4606 c-2 -2 -33 -7 -69 -10 -325 -34 -658 -154 -932 -337 -48
-32 -93 -63 -100 -68 -7 -6 -42 -34 -78 -63 -268 -217 -492 -525 -624 -862
-42 -104 -96 -294 -110 -381 -2 -16 -7 -50 -11 -75 -4 -25 -9 -56 -12 -70 -9
-47 -11 -385 -3 -445 5 -33 11 -78 13 -100 26 -209 115 -480 228 -693 198
-371 531 -695 909 -887 207 -104 485 -187 713 -212 134 -15 476 -7 568 13 13
3 35 7 49 9 43 6 162 35 235 56 547 162 1026 571 1280 1094 35 72 82 185 104
253 35 105 48 153 76 284 2 9 6 38 10 65 4 26 9 59 12 73 13 69 12 391 -2 495
-9 61 -17 125 -20 143 -2 18 -7 42 -10 53 -4 10 -8 31 -11 46 -17 95 -101 325
-168 458 -141 281 -361 545 -616 739 -230 174 -497 300 -780 367 -117 27 -121
28 -208 40 -71 10 -435 22 -443 15z m388 -220 c11 -2 43 -8 70 -11 506 -72
998 -391 1290 -836 216 -330 316 -678 308 -1079 -3 -153 -19 -300 -41 -372 -3
-10 -7 -29 -10 -44 -3 -14 -22 -78 -43 -142 -201 -609 -708 -1082 -1333 -1243
-99 -25 -95 -24 -233 -42 -105 -13 -410 -15 -464 -3 -12 3 -42 7 -65 10 -24 3
-91 17 -149 30 -445 105 -841 377 -1116 764 -28 39 -51 75 -51 79 0 3 -6 14
-14 22 -23 25 -123 232 -157 323 -76 207 -111 406 -113 638 -1 207 7 287 48
460 140 598 576 1098 1160 1330 76 30 227 75 281 84 17 3 55 10 85 16 30 6 87
14 125 17 39 3 71 7 73 8 5 5 325 -3 349 -9z"/>
<path d="M2210 3999 c-44 -13 -129 -100 -171 -173 -17 -31 -30 -58 -30 -61 1
-3 -5 -18 -12 -33 -55 -108 -69 -361 -28 -507 34 -123 146 -342 228 -445 6 -8
43 -54 81 -101 l69 -85 -22 -28 -22 -27 -16 23 c-8 13 -30 39 -47 58 -120 134
-282 408 -325 548 -4 15 -32 34 -90 62 -46 23 -91 42 -102 44 -10 2 -48 11
-84 20 -37 8 -94 16 -128 18 -33 2 -61 7 -61 11 0 5 -6 5 -12 0 -7 -4 -31 -9
-53 -10 -122 -10 -242 -64 -290 -132 -25 -35 -30 -54 -32 -106 -2 -66 11 -100
55 -150 36 -41 29 -59 -30 -73 -95 -22 -158 -94 -163 -186 -4 -59 7 -94 52
-164 36 -58 135 -158 164 -167 11 -4 19 -10 19 -15 0 -21 251 -126 329 -137
135 -19 360 2 506 47 117 36 222 74 233 82 6 6 12 7 12 4 0 -4 10 -1 23 6 35
19 42 18 59 -12 16 -28 16 -28 -21 -43 -44 -19 -152 -58 -166 -61 -5 -1 -14
-4 -20 -8 -10 -6 -112 -36 -150 -44 -138 -31 -221 -43 -308 -46 -52 -2 -61 -6
-100 -43 -23 -22 -56 -58 -72 -80 -17 -22 -33 -42 -36 -45 -3 -3 -24 -39 -45
-80 -75 -140 -102 -240 -97 -358 4 -119 38 -188 116 -229 35 -18 129 -24 162
-9 11 5 25 10 30 11 52 13 56 10 52 -47 -5 -68 8 -118 44 -161 110 -133 361
-76 563 130 121 124 181 229 221 388 33 131 40 202 40 433 0 111 0 202 0 202
0 0 14 4 31 9 36 10 32 31 37 -201 4 -164 -11 -328 -39 -440 -30 -116 -29
-122 11 -193 59 -106 156 -215 259 -293 30 -23 166 -94 166 -87 0 2 22 -3 48
-9 58 -16 150 -11 172 9 9 8 20 15 25 15 12 0 53 51 70 87 9 18 15 59 15 96 0
36 4 68 8 71 5 3 21 -2 37 -10 131 -68 279 1 310 146 22 100 -2 257 -58 380
-29 63 -103 177 -145 225 -36 40 -140 124 -197 158 -43 26 -205 103 -235 112
-14 4 -38 13 -55 20 -31 14 -131 44 -222 66 -40 10 -52 17 -56 35 -8 45 4 47
108 19 113 -30 206 -60 252 -81 17 -7 34 -14 38 -14 17 0 165 -77 236 -122
l76 -48 83 16 c231 43 443 182 530 346 74 138 21 275 -122 315 -37 10 -58 22
-58 31 0 8 14 32 32 54 62 79 66 172 10 253 -26 38 -98 84 -152 98 -14 4 -26
7 -27 8 -17 12 -127 25 -194 23 -140 -3 -277 -38 -382 -97 -53 -29 -60 -37
-78 -87 -24 -69 -98 -215 -147 -289 -42 -65 -147 -207 -175 -236 -11 -11 -26
-31 -35 -44 l-16 -23 -22 27 -22 28 41 51 c23 28 44 53 47 56 5 5 84 114 127
176 34 50 118 214 141 279 56 153 63 359 16 515 -18 63 -68 173 -93 203 -88
109 -135 137 -222 132 -85 -5 -130 -34 -175 -112 -10 -18 -23 -33 -30 -33 -6
0 -26 22 -44 48 -44 65 -90 93 -159 98 -31 2 -72 -1 -91 -7z m324 -1101 c18
-7 28 -22 32 -46 6 -31 3 -39 -23 -62 -28 -26 -29 -29 -29 -115 l1 -89 31 -8
c30 -8 84 -52 84 -69 0 -5 8 -9 17 -9 22 0 174 52 168 58 -12 12 27 61 54 67
58 12 99 -38 76 -93 -18 -40 -56 -51 -99 -28 -31 16 -35 16 -114 -10 -82 -26
-82 -26 -82 -60 0 -35 -24 -93 -43 -105 -12 -8 97 -157 115 -156 48 2 60 -4
74 -38 15 -36 7 -69 -20 -87 -21 -14 -66 -8 -86 12 -21 21 -27 69 -10 86 6 6
2 19 -13 36 -12 14 -37 47 -55 72 -27 40 -36 46 -55 40 -27 -9 -84 -10 -117
-1 -22 6 -30 -1 -75 -66 -43 -61 -49 -76 -42 -97 13 -38 -6 -77 -42 -85 -43
-9 -67 1 -80 33 -22 52 17 104 74 99 21 -2 131 143 117 152 -18 12 -42 71 -42
104 0 35 -1 35 -81 62 -79 26 -82 26 -114 9 -44 -23 -82 -13 -100 29 -11 27
-11 36 1 59 28 54 104 45 123 -15 6 -18 17 -34 24 -34 6 -1 41 -10 76 -22 80
-27 85 -26 101 4 8 14 35 35 60 47 l47 22 0 84 c0 79 -2 85 -29 112 -33 34
-35 58 -7 94 22 28 44 32 83 14z"/>
</g>
</svg>
